<svg width="48" height="48" viewBox="0 0 48 48" fill="none" xmlns="http://www.w3.org/2000/svg">
<g clip-path="url(#clip0_1_10049)">
<path d="M46.967 25.747C50.602 12.625 44.314 0 33.295 0C27.198 0 24.595 3.504 17.898 11.663C11.2 19.822 1.65 8.478 0 25.747C1.386 41.66 18.652 56.064 26.668 42.774C33.966 30.674 43.333 38.868 46.968 25.747H46.967Z" fill="#FFDD76"/>
<path d="M21.6493 14.559H22.1743L22.3733 14.074C22.7033 13.268 23.2833 12.781 23.9993 12.781C24.7153 12.781 25.2953 13.268 25.6253 14.074L25.8243 14.559H31.9993C32.2563 14.559 32.4943 14.639 32.6913 14.774H28.6733V18.33H19.3263V14.774H15.3073C15.5043 14.638 15.7423 14.559 15.9993 14.559H19.4543H21.6493ZM32.9623 15.556V15.031C33.1223 15.237 33.2183 15.496 33.2183 15.778V34C33.2183 34.281 33.1223 34.54 32.9623 34.747V34.222V15.556ZM32.1813 35.004H32.6913C32.4879 35.1444 32.2465 35.2195 31.9993 35.219H15.9993C15.7522 35.2191 15.5109 35.1441 15.3073 35.004H15.8173H32.1813ZM15.0363 34.222V34.747C14.8697 34.5336 14.7793 34.2707 14.7793 34V15.778C14.7793 15.496 14.8753 15.238 15.0353 15.031V15.556L15.0363 34.222ZM28.4163 15.556V14.774H25.6893V14.667C25.6893 13.717 24.9273 12.997 23.9993 12.997C23.0713 12.997 22.3093 13.717 22.3093 14.667V14.774H19.5813V18.115H28.4173V17.333L28.4163 15.556ZM22.5443 29.079L23.0903 29.613L23.6363 29.079L28.8113 24.019L28.9793 24.184L23.0893 29.942L19.9293 26.851L20.0963 26.686L22.5443 29.079Z" fill="#63522B" stroke="#63522B" stroke-width="1.563"/>
</g>
<defs>
<clipPath id="clip0_1_10049">
<rect width="48" height="48" fill="white"/>
</clipPath>
</defs>
</svg>
