<svg width="48" height="48" viewBox="0 0 48 48" fill="none" xmlns="http://www.w3.org/2000/svg">
<path d="M46.967 22.2531C50.602 35.3751 44.314 48.0001 33.295 48.0001C27.198 48.0001 18.5 47.0001 14.898 38.3371C11.427 29.9901 0.5 37.5001 0 20.2531C0 6.00006 20.876 -7.66395 26.668 5.22606C32.46 18.1151 43.333 9.13106 46.968 22.2531H46.967Z" fill="#E8F3FE"/>
<path d="M21.338 12.0001C21.338 12.0001 19.655 11.9601 18.706 13.0161C17.758 14.0711 17.903 15.8251 17.903 15.8251C17.903 15.8251 19.586 15.8681 20.535 14.8111C21.484 13.7541 21.338 12.0011 21.338 12.0011V12.0001ZM26.66 12.0001C26.66 12.0001 26.515 13.7551 27.463 14.8111C28.411 15.8671 30.093 15.8251 30.093 15.8251C30.093 15.8251 30.24 14.0721 29.292 13.0151C28.343 11.9601 26.66 12.0001 26.66 12.0001ZM15.463 13.1931C15.463 13.1931 14.349 14.5131 14.512 15.9521C14.675 17.3901 16.052 18.4021 16.052 18.4021L16.059 18.3921C16.349 18.6441 17.419 19.4871 18.597 19.3651C19.976 19.2221 20.97 17.8001 20.97 17.8001C20.97 17.8001 19.728 16.6121 18.35 16.7551C17.564 16.8371 16.912 17.3301 16.49 17.7421C16.78 17.2211 17.094 16.4541 17.003 15.6421C16.84 14.2031 15.463 13.1941 15.463 13.1941V13.1931ZM32.536 13.1931C32.536 13.1931 31.159 14.2051 30.996 15.6431C30.903 16.4561 31.216 17.2211 31.509 17.7421C31.086 17.3291 30.434 16.8371 29.649 16.7551C28.271 16.6121 27.028 17.8021 27.028 17.8021C27.028 17.8021 28.023 19.2241 29.401 19.3671C30.578 19.4891 31.649 18.6431 31.939 18.3931L31.946 18.4031C31.946 18.4031 33.323 17.3901 33.486 15.9521C33.65 14.5121 32.536 13.1931 32.536 13.1931ZM12.768 18.6141C12.768 18.6141 12.086 20.2241 12.654 21.5441C13.222 22.8661 14.826 23.3981 14.826 23.3981L14.833 23.3801C15.193 23.4951 16.491 23.8431 17.533 23.2571C18.751 22.5701 19.145 20.8591 19.145 20.8591C19.145 20.8591 17.562 20.2611 16.342 20.9481C15.752 21.2801 15.359 21.8511 15.107 22.3531C15.197 21.7971 15.215 21.1031 14.942 20.4691C14.375 19.1481 12.768 18.6141 12.768 18.6141ZM35.23 18.6141C35.23 18.6141 33.624 19.1481 33.056 20.4691C32.784 21.1011 32.802 21.7971 32.891 22.3531C32.639 21.8511 32.246 21.2801 31.656 20.9481C30.436 20.2611 28.853 20.8591 28.853 20.8591C28.853 20.8591 29.247 22.5711 30.466 23.2591C31.507 23.8441 32.805 23.4971 33.166 23.3821L33.172 23.4001C33.172 23.4001 34.777 22.8661 35.344 21.5451C35.913 20.2231 35.23 18.6141 35.23 18.6141ZM18.536 23.9541C18.536 23.9541 16.892 24.3251 16.205 25.5841C15.874 26.1901 15.829 26.8901 15.868 27.4541C15.665 26.9321 15.33 26.3311 14.781 25.9421C13.633 25.1301 12 25.5581 12 25.5581C12 25.5581 12.226 27.3021 13.374 28.1131C14.521 28.9261 16.156 28.4991 16.156 28.4991L16.153 28.4831C16.513 28.3831 17.796 27.9611 18.383 26.8831C19.069 25.6251 18.536 23.9551 18.536 23.9551V23.9541ZM29.462 23.9541C29.462 23.9541 28.93 25.6251 29.616 26.8841C30.204 27.9611 31.487 28.3841 31.847 28.4841L31.844 28.4991C31.844 28.4991 33.479 28.9271 34.626 28.1151C35.774 27.3031 36 25.5581 36 25.5581C36 25.5581 34.364 25.1301 33.217 25.9421C32.669 26.3321 32.334 26.9321 32.132 27.4551C32.172 26.8901 32.126 26.1901 31.795 25.5831C31.108 24.3251 29.462 23.9551 29.462 23.9551V23.9541ZM19.858 27.3841C19.858 27.3841 18.321 28.1021 17.898 29.4801C17.658 30.2661 17.83 31.0861 18.023 31.6551C17.682 31.1681 17.137 30.5621 16.387 30.3271C15.06 29.9111 13.624 30.8301 13.624 30.8301C13.624 30.8301 14.338 32.4231 15.665 32.8401C16.82 33.2011 18 32.5841 18.302 32.4101C18.893 33.0531 19.6 33.4851 20.356 33.7781C20.097 33.9881 19.868 34.2391 19.704 34.5641C19.6827 34.5985 19.6637 34.6342 19.647 34.6711L19.638 34.6871C19.5635 34.8593 19.5409 35.0495 19.5729 35.2344C19.6049 35.4193 19.69 35.5908 19.818 35.7281C19.9579 35.8772 20.1464 35.9716 20.3497 35.9944C20.5529 36.0171 20.7576 35.9666 20.927 35.8521C21.0718 35.754 21.1856 35.6166 21.255 35.4561C21.34 35.2591 21.575 35.0661 22.169 34.8901C22.64 34.7501 23.295 34.6551 23.999 34.5571C24.703 34.6551 25.358 34.7501 25.829 34.8901C26.422 35.0661 26.658 35.2601 26.743 35.4561H26.745C26.815 35.6181 26.929 35.7561 27.072 35.8521C27.2137 35.9481 27.3808 35.9996 27.552 36.0001C27.6696 35.9996 27.786 35.9753 27.8939 35.9285C28.0019 35.8817 28.0992 35.8136 28.18 35.7281C28.3095 35.5918 28.3957 35.4201 28.4275 35.2347C28.4594 35.0494 28.4355 34.8588 28.359 34.6871H28.36L28.352 34.6711C28.3346 34.6321 28.3145 34.5944 28.292 34.5581C28.1334 34.2547 27.9117 33.9888 27.642 33.7781C28.398 33.4851 29.105 33.0531 29.696 32.4091C29.996 32.5831 31.176 33.2031 32.333 32.8411C33.66 32.4251 34.376 30.8311 34.376 30.8311C34.376 30.8311 32.94 29.9131 31.613 30.3291C30.863 30.5641 30.316 31.1701 29.975 31.6571C30.168 31.0871 30.341 30.2651 30.1 29.4811C29.677 28.1011 28.14 27.3841 28.14 27.3841C28.14 27.3841 27.29 28.9041 27.713 30.2821C27.833 30.6701 28.041 31.0001 28.277 31.2821L28.275 31.2831C27.37 32.1071 25.875 32.4181 24.299 32.6381L23.999 32.6801L23.699 32.6381C22.123 32.4181 20.627 32.1051 19.721 31.2811C19.957 30.9991 20.168 30.6691 20.287 30.2811C20.71 28.9021 19.858 27.3841 19.858 27.3841Z" fill="#2C70C1"/>
</svg>
