<svg width="48" height="48" viewBox="0 0 48 48" fill="none" xmlns="http://www.w3.org/2000/svg">
<g clip-path="url(#clip0_1_9937)">
<path d="M1.03313 25.747C-2.60187 12.625 3.68613 0 14.7051 0C20.8021 0 23.4051 3.504 30.1021 11.663C36.8001 19.822 46.3501 8.478 48.0001 25.747C46.6141 41.66 29.3481 56.064 21.3321 42.774C14.0341 30.674 4.66713 38.868 1.03213 25.747H1.03313Z" fill="#E6F1F9"/>
<path d="M15 13C14.4 13 14 13.4 14 14V20C14 20.6 14.4 21 15 21H30C30.6 21 31 20.6 31 20V18H32V23H24C22.907 23 22 23.907 22 25V27C21.4 27 21 27.4 21 28V34C21 34.6 21.4 35 22 35H24C24.6 35 25 34.6 25 34V28C25 27.4 24.6 27 24 27V25H32C33.093 25 34 24.093 34 23V18C34 16.907 33.093 16 32 16H31V14C31 13.4 30.6 13 30 13H15ZM16 15H29V19H16V15Z" fill="#036FC7"/>
</g>
<defs>
<clipPath id="clip0_1_9937">
<rect width="48" height="48" fill="white"/>
</clipPath>
</defs>
</svg>
