<svg width="48" height="48" viewBox="0 0 48 48" fill="none" xmlns="http://www.w3.org/2000/svg">
<g clip-path="url(#clip0_1_9887)">
<path d="M46.967 25.747C50.602 12.625 44.314 0 33.295 0C27.198 0 24.595 3.504 17.898 11.663C11.2 19.822 1.65 8.478 0 25.747C1.386 41.66 18.652 56.064 26.668 42.774C33.966 30.674 43.333 38.868 46.968 25.747H46.967Z" fill="#E6F1F9"/>
<path d="M27.923 18.9999C27.368 18.9999 27 19.3679 27 19.9229V29.4999C27 29.9619 27.368 30.4229 27.923 30.4229C28.107 28.8549 29.338 27.4999 31.001 27.4999C32.663 27.4999 33.817 28.8379 34.001 30.4999H35.001C35.556 30.4999 36.001 30.0939 36.001 29.5379V24.9229C36.001 24.0929 35.251 23.0769 35.251 23.0769L33.231 19.9619C32.769 19.4059 32.491 19.0379 31.846 19.0379L27.923 18.9999ZM29.001 20.9999H32.001L34.067 24.0869C34.251 24.3639 34.5 24.7219 34.5 24.9999H29L29.001 20.9999ZM16.001 28.9999C14.828 28.9999 14.001 29.8279 14.001 30.9999C14.001 32.1719 14.829 32.9999 16.001 32.9999C17.173 32.9999 18.001 32.1719 18.001 30.9999C18.001 29.8279 17.171 28.9999 16.001 28.9999ZM31.001 28.9999C29.829 28.9999 29.001 29.8279 29.001 30.9999C29.001 32.1719 29.829 32.9999 31.001 32.9999C32.173 32.9999 33.001 32.1719 33.001 30.9999C33.001 29.8279 32.172 28.9999 31.001 28.9999ZM20 30.9999C20 29.8279 20.828 28.9999 22 28.9999C23.172 28.9999 24 29.8279 24 30.9999C24 32.1719 23.172 32.9999 22 32.9999C20.829 32.9999 20 32.1719 20 30.9999ZM13.553 20.9999C13.2065 20.719 12.9638 20.3303 12.8636 19.8956C12.7634 19.4609 12.8114 19.0052 13 18.6009L14.114 16.2109C14.3025 15.8067 14.6208 15.4772 15.0181 15.2746C15.4155 15.072 15.8691 15.0081 16.307 15.0929L20.362 15.8789C20.5222 15.9098 20.678 15.9602 20.826 16.0289L24.519 17.7509C24.6904 17.8309 24.8443 17.9438 24.972 18.0833C25.0998 18.2228 25.1988 18.386 25.2634 18.5638C25.328 18.7415 25.357 18.9302 25.3487 19.1192C25.3404 19.3081 25.295 19.4936 25.215 19.6649L22.723 25.2049C22.643 25.3763 22.5301 25.5303 22.3906 25.658C22.2511 25.7857 22.0879 25.8847 21.9101 25.9494C21.7324 26.014 21.5437 26.043 21.3547 26.0347C21.1658 26.0264 20.9803 25.9809 20.809 25.9009L17.117 24.1789C16.9686 24.1099 16.8292 24.0229 16.702 23.9199L13.553 20.9999Z" fill="#036FC7"/>
<path d="M12.4996 27C11.9446 27 11.9996 27.445 11.9996 28V29.5C11.9996 30.055 11.9446 30.462 12.4996 30.462H12.9996V28H24.9996V30.462L25.2146 30.423C25.7696 30.423 25.9996 30.055 25.9996 29.5V28C25.9996 27.445 25.5546 27 24.9996 27H12.4996Z" fill="#036FC7"/>
</g>
<defs>
<clipPath id="clip0_1_9887">
<rect width="48" height="48" fill="white"/>
</clipPath>
</defs>
</svg>
