<svg width="48" height="48" viewBox="0 0 48 48" fill="none" xmlns="http://www.w3.org/2000/svg">
<g clip-path="url(#clip0_1_10111)">
<path d="M33.295 48C44.314 48 50.602 35.375 46.967 22.253C43.333 9.13096 33.966 17.326 26.667 5.22596C18.654 -8.06404 1.387 6.33896 0 22.253C0.53 30.835 7.93 48 33.295 48Z" fill="#E8F3FE"/>
<path d="M20.3734 12.9L19.4954 14.03L19.4934 14.033C19.3859 14.1714 19.2408 14.2758 19.0754 14.334L17.7394 14.812L20.3734 12.9ZM20.3734 12.9C20.7134 12.46 21.2454 12.204 21.8014 12.195C21.9896 12.1925 22.177 12.2185 22.3574 12.272H22.3594L23.7154 12.662C23.8854 12.717 24.0784 12.717 24.2474 12.662L25.6044 12.272H25.6054C26.3414 12.055 27.1354 12.312 27.5894 12.899L28.4674 14.03L28.4704 14.033C28.5744 14.163 28.7134 14.276 28.8874 14.334L30.2234 14.812C30.5722 14.9351 30.8761 15.1601 31.0956 15.4578C31.315 15.7556 31.4401 16.1124 31.4544 16.482L31.4984 17.892C31.4984 18.081 31.5544 18.252 31.6684 18.397L32.4764 19.566L32.4784 19.568C32.9124 20.174 32.9124 21.018 32.4784 21.623L32.4764 21.626L31.6644 22.8L31.6634 22.802C31.5598 22.9477 31.5023 23.1212 31.4984 23.3L31.4544 24.71C31.4401 25.0795 31.3153 25.4362 31.096 25.7339C30.8767 26.0317 30.5731 26.2567 30.2244 26.38L20.3734 12.9ZM20.3734 12.9L30.2244 26.38L20.3734 12.9ZM16.5094 16.48V16.481L16.4654 17.891C16.4615 18.0698 16.404 18.2432 16.3004 18.389L16.2994 18.391L15.4894 19.561C15.2937 19.8749 15.1917 20.2381 15.1954 20.608C15.1991 20.9779 15.3084 21.3391 15.5104 21.649L16.3174 22.815C16.4301 22.9589 16.4901 23.1372 16.4874 23.32L16.5314 24.73V24.731C16.5514 25.474 17.0454 26.144 17.7614 26.401L18.4614 26.639L18.6514 26.703L18.5814 26.891L16.0584 33.718C16.0286 33.8014 16.0243 33.8917 16.046 33.9776C16.0678 34.0634 16.1145 34.1408 16.1804 34.2C16.3204 34.323 16.5224 34.354 16.6944 34.277C17.3279 33.9825 18.0522 33.9508 18.709 34.1888C19.3658 34.4267 19.9016 34.9151 20.1994 35.547C20.2744 35.709 20.4394 35.804 20.6144 35.804H20.6274C20.8264 35.784 20.9874 35.672 21.0444 35.502L21.0454 35.497L23.5694 28.627L23.5954 28.553L23.6654 28.518L23.7094 28.497L23.7214 28.491L23.7344 28.486C23.9087 28.4302 24.0961 28.4302 24.2704 28.486L25.6274 28.876C26.3644 29.093 27.1574 28.836 27.6124 28.248L28.4024 27.226L28.6194 26.946L28.7404 27.278L30.7594 32.779L30.8624 33.059L30.5644 33.041C30.0625 33.0067 29.5589 33.077 29.0855 33.2474C28.6122 33.4178 28.1793 33.6846 27.8144 34.031L27.6004 34.237L27.4964 33.958L26.3564 30.893C26.2594 30.639 25.9964 30.527 25.7764 30.614C25.5294 30.713 25.4074 30.979 25.4914 31.186L25.4934 31.192L27.0514 35.453C27.1094 35.613 27.2784 35.741 27.4694 35.76H27.4824C27.5693 35.7598 27.6543 35.7354 27.728 35.6894C27.8017 35.6435 27.861 35.5779 27.8994 35.5C28.1979 34.869 28.7339 34.3818 29.3904 34.1446C30.0469 33.9074 30.7706 33.9395 31.4034 34.234L16.5094 16.48ZM16.5084 16.48L31.4024 34.234L16.5084 16.48ZM16.5084 16.48C16.5227 16.1105 16.6476 15.7538 16.8669 15.456C17.0862 15.1583 17.3898 14.9332 17.7384 14.81L16.5084 16.48ZM31.4024 34.234C31.4865 34.2713 31.5794 34.2837 31.6703 34.2699C31.7612 34.2561 31.8463 34.2166 31.9154 34.156C31.9811 34.0969 32.0278 34.0196 32.0495 33.934C32.0712 33.8484 32.067 33.7582 32.0374 33.675L29.5354 26.825L29.4674 26.639L29.6554 26.574L30.2254 26.379L31.4024 34.234ZM31.4024 34.234L30.2244 26.379L31.4024 34.234ZM19.6914 27.377L19.4764 27.103L19.3554 27.43L17.3374 32.865L17.2394 33.128H17.7834C18.2024 33.128 18.6174 33.191 19.0094 33.333C19.4964 33.523 19.9304 33.771 20.2794 34.116L20.4944 34.329L20.5994 34.044L22.3764 29.218L22.4734 28.955H22.1934C22.1294 28.955 22.0664 28.961 22.0134 28.966H22.0094C21.9613 28.9719 21.9129 28.9752 21.8644 28.976C21.5821 28.9752 21.3035 28.9112 21.0491 28.7887C20.7948 28.6662 20.5711 28.4882 20.3944 28.268L19.6914 27.377ZM28.1374 20.606C28.1374 18.344 26.2714 16.497 23.9924 16.497C21.7144 16.497 19.8484 18.344 19.8484 20.606C19.8484 22.868 21.7144 24.715 23.9924 24.715C26.2714 24.715 28.1374 22.868 28.1374 20.605V20.606ZM23.5294 19.52C23.5294 19.26 23.7254 19.063 23.9924 19.063C24.2594 19.063 24.4554 19.26 24.4554 19.52V21.694C24.4554 21.954 24.2594 22.151 23.9924 22.151C23.9316 22.153 23.8709 22.1427 23.8142 22.1205C23.7575 22.0983 23.7059 22.0648 23.6626 22.0221C23.6193 21.9793 23.5851 21.9282 23.5622 21.8718C23.5393 21.8153 23.5282 21.7549 23.5294 21.694V19.52Z" fill="#2C70C1" stroke="#2C70C1" stroke-width="0.391"/>
</g>
<defs>
<clipPath id="clip0_1_10111">
<rect width="48" height="48" fill="white"/>
</clipPath>
</defs>
</svg>
