<svg width="48" height="48" viewBox="0 0 48 48" fill="none" xmlns="http://www.w3.org/2000/svg">
<g clip-path="url(#clip0_1_9820)">
<path d="M33.295 48C44.314 48 50.602 35.375 46.967 22.253C43.333 9.13096 33.966 17.326 26.667 5.22596C18.654 -8.06404 1.387 6.33896 0 22.253C0.53 30.835 7.93 48 33.295 48Z" fill="#FFDD76"/>
<path d="M24.0001 12C22.8301 12 21.7841 12.78 21.0841 14.01L18.4281 18.66L20.0451 19.62L22.6701 15C23.1431 14.167 23.6201 13.92 23.9981 13.92C24.3781 13.92 24.8541 14.167 25.3261 15L28.2131 20.07L26.7411 21L31.3601 23.88V18.12L29.8001 19.08L26.9141 14.01C26.2151 12.78 25.1701 12 24.0001 12ZM18.3991 20.61L13.7801 23.49L15.1951 24.36L12.6251 28.89C11.9291 30.116 11.7741 31.474 12.3651 32.52C12.9571 33.566 14.1551 34.08 15.5411 34.08H21.2281V32.16H15.5411C14.5851 32.16 14.1311 31.845 13.9531 31.53C13.7771 31.215 13.7411 30.683 14.2131 29.85L16.7531 25.35L18.3991 26.37V20.61ZM33.1221 25.02L31.5621 26.01L33.7861 29.85C34.2621 30.686 34.2221 31.215 34.0461 31.53C33.8691 31.845 33.4141 32.16 32.4581 32.16H27.6951V30.24L23.0751 33.12L27.6951 36V34.08H32.4581C33.8441 34.08 35.0421 33.566 35.6331 32.52C36.2251 31.474 36.0731 30.12 35.3731 28.89V28.86L33.1221 25.02Z" fill="#63522B"/>
</g>
<defs>
<clipPath id="clip0_1_9820">
<rect width="48" height="48" fill="white"/>
</clipPath>
</defs>
</svg>
