<svg width="48" height="48" viewBox="0 0 48 48" fill="none" xmlns="http://www.w3.org/2000/svg">
<g clip-path="url(#clip0_1_9962)">
<path d="M1.03313 25.747C-2.60187 12.625 3.68613 0 14.7051 0C20.8021 0 23.4051 3.504 30.1021 11.663C36.8001 19.822 46.3501 8.478 48.0001 25.747C46.6141 41.66 29.3481 56.064 21.3321 42.774C14.0341 30.674 4.66713 38.868 1.03213 25.747H1.03313Z" fill="#E6F1F9"/>
<path d="M12 12V20H14V19H20C20.2652 19 20.5196 19.1054 20.7071 19.2929C20.8946 19.4804 21 19.7348 21 20V30C21 32.75 23.25 35 26 35H34V36H36V28H34V29H28C27.7348 29 27.4804 28.8946 27.2929 28.7071C27.1054 28.5196 27 28.2652 27 28V18C27 15.25 24.75 13 22 13H14V12H12ZM14 15H22C23.669 15 25 16.331 25 18V23H23V19C23 17.907 22.093 17 21 17H14V15ZM23 25H25V29C25 30.093 25.907 31 27 31H34V33H26C24.331 33 23 31.669 23 30V25Z" fill="#036FC7"/>
<path d="M20 23H28V26H20V23Z" fill="#036FC7"/>
</g>
<defs>
<clipPath id="clip0_1_9962">
<rect width="48" height="48" fill="white"/>
</clipPath>
</defs>
</svg>
