<svg width="40" height="40" viewBox="0 0 40 40" fill="none" xmlns="http://www.w3.org/2000/svg">
<path d="M18.121 1.73C24.881 4.883 26.444 8.816 26.777 10.88C27.153 13.236 26.322 15.017 25.494 15.824C24.656 16.644 23.772 17.058 22.866 17.058C22.605 17.058 22.36 17.023 22.133 16.965L17.162 2.48C17.1447 2.35477 17.1603 2.22721 17.2071 2.10978C17.2539 1.99235 17.3303 1.88906 17.429 1.81L18.121 1.73ZM18.121 1.728C18.0093 1.67654 17.8855 1.65697 17.7634 1.67144C17.6413 1.68591 17.5255 1.73387 17.429 1.81L18.121 1.728ZM18.121 1.728L17.909 2.181C24.529 5.271 25.978 9.069 26.283 10.957C26.636 13.165 25.849 14.779 25.145 15.465H25.144C24.372 16.222 23.607 16.557 22.866 16.557C22.647 16.5566 22.4291 16.527 22.218 16.469C22.892 12.284 22.29 9.271 21.11 6.189C21.0556 6.04036 20.9719 5.90418 20.8639 5.78855C20.7558 5.67292 20.6256 5.5802 20.481 5.51592C20.3364 5.45164 20.1803 5.4171 20.0221 5.41437C19.8639 5.41163 19.7067 5.44075 19.56 5.5L19.553 5.503C19.2618 5.63009 19.031 5.86494 18.9091 6.15835C18.7872 6.45176 18.7836 6.78096 18.899 7.077C20.024 10.017 20.533 12.717 19.762 16.741C19.3 16.88 18.842 16.999 18.407 16.999C17.271 16.999 16.34 16.632 15.642 15.994C14.942 15.354 14.446 14.413 14.242 13.219C13.714 10.125 15.066 7.975 16.242 6.127L16.264 6.092C16.648 5.488 17.03 4.886 17.296 4.302C17.569 3.704 17.745 3.072 17.657 2.414C17.6511 2.37492 17.6554 2.33501 17.6695 2.29806C17.6835 2.26112 17.7067 2.22839 17.737 2.203L17.429 1.81L18.121 1.728ZM18.121 1.728L17.91 2.182C17.8818 2.16908 17.8508 2.1639 17.82 2.167C17.7899 2.17155 17.7616 2.18397 17.738 2.203L17.429 1.81L18.121 1.728ZM21.56 17.302C21.5163 17.2844 21.473 17.2661 21.43 17.247L21.325 17.202C21.234 17.252 21.139 17.299 21.042 17.343L21.56 17.302ZM21.56 17.302L21.161 16.72C21.147 16.7981 21.1326 16.8761 21.118 16.954L21.057 17.059L21.094 17.08L21.042 17.343L21.56 17.302ZM21.56 17.302C21.2961 18.6113 20.9576 19.9044 20.546 21.175L21.56 17.302ZM21.56 17.302L20.546 21.175L21.56 17.302ZM21.042 17.343C20.7853 18.5861 20.4608 19.8143 20.07 21.022L21.042 17.343ZM21.042 17.343C20.9059 17.4051 20.7675 17.4619 20.627 17.513L21.042 17.343ZM20.07 21.022L20.627 17.512L20.07 21.022ZM20.07 21.022C20.038 21.121 19.958 21.166 19.892 21.166C19.8769 21.1656 19.862 21.1626 19.848 21.157L19.839 21.154C19.754 21.124 19.676 21.008 19.719 20.87C20.0753 19.7699 20.377 18.6529 20.623 17.523L20.07 21.022ZM20.07 21.022L20.623 17.522L20.07 21.022ZM20.627 17.512L20.625 17.522H20.623L20.627 17.512ZM20.627 17.512L20.623 17.522L20.627 17.512ZM20.546 21.175C20.503 21.3155 20.4165 21.4388 20.299 21.5271C20.1814 21.6153 20.0389 21.664 19.892 21.666C19.8188 21.6653 19.7464 21.6518 19.678 21.626C19.316 21.503 19.123 21.096 19.242 20.719L20.546 21.175ZM3.26197 25L3.66297 24.702L3.65097 24.685L3.63797 24.67L3.50497 24.52C3.12597 24.092 2.82697 23.753 2.59697 23.275C2.34697 22.755 2.16797 22.034 2.16797 20.834V10.834C2.16797 10.117 2.40297 9.63 2.72797 9.321C3.05797 9.007 3.52597 8.834 4.05897 8.834C4.59197 8.834 5.05897 9.007 5.38997 9.321C5.71497 9.631 5.94997 10.117 5.94997 10.834V17.969C5.91762 17.9861 5.88593 18.0045 5.85497 18.024C5.67909 18.1394 5.5225 18.2818 5.39097 18.446C5.07922 18.8395 4.86474 19.301 4.76497 19.793C4.52797 20.9 4.77997 22.316 6.07297 23.683L9.56897 27.586L9.57197 27.59C9.67653 27.7072 9.80472 27.801 9.9481 27.8651C10.0915 27.9293 10.2468 27.9623 10.4039 27.9621C10.561 27.962 10.7163 27.9285 10.8595 27.864C11.0027 27.7996 11.1307 27.7055 11.235 27.588C11.4415 27.3558 11.5554 27.0557 11.5548 26.7449C11.5543 26.4342 11.4394 26.1345 11.232 25.903L7.41397 21.661L7.41097 21.658C6.87897 21.078 6.87597 20.143 7.42397 19.543L7.42497 19.542C7.49697 19.462 7.73997 19.241 8.07697 19.18C8.36997 19.127 8.85197 19.174 9.48697 19.836L13.302 24.091L13.307 24.096L13.312 24.101C14.947 25.821 16.312 27.946 16.312 30.833V37.5C16.312 37.596 16.312 37.66 16.305 37.718C16.3029 37.7427 16.2972 37.767 16.288 37.79C16.2014 37.8235 16.1087 37.8385 16.016 37.834H9.63897C9.59752 37.8346 9.55609 37.8322 9.51497 37.827C9.47696 37.8228 9.43985 37.8127 9.40497 37.797C9.39025 37.7913 9.37767 37.7812 9.36897 37.768C9.36397 37.76 9.34197 37.72 9.34197 37.618V32.336L9.24497 32.204C8.83297 31.644 7.43597 29.768 6.14497 28.033L4.41897 25.716L3.86897 24.978L3.71697 24.773L3.67697 24.72L3.66697 24.706L3.66397 24.703V24.702L3.26197 25ZM34.052 17.969V10.834C34.052 10.117 34.287 9.63 34.612 9.321C34.942 9.007 35.41 8.834 35.943 8.834C36.476 8.834 36.943 9.007 37.274 9.321C37.599 9.631 37.834 10.117 37.834 10.834V20.834C37.834 22.034 37.656 22.754 37.406 23.275C37.176 23.753 36.876 24.092 36.498 24.52L36.365 24.67L36.352 24.685L36.34 24.702L36.74 25L36.34 24.702H36.339L36.336 24.706L36.326 24.72L36.286 24.773L36.134 24.978L35.584 25.716L33.858 28.033C32.8225 29.4214 31.7892 30.8114 30.758 32.203L30.661 32.336V37.617C30.661 37.72 30.639 37.76 30.633 37.768C30.6248 37.7806 30.6129 37.7904 30.599 37.796C30.5638 37.8118 30.5263 37.8219 30.488 37.826C30.4468 37.8312 30.4054 37.8336 30.364 37.833H23.987C23.8943 37.8378 23.8016 37.8232 23.715 37.79C23.7058 37.767 23.7 37.7427 23.698 37.718C23.6908 37.6456 23.6881 37.5728 23.69 37.5V30.833C23.69 27.946 25.055 25.82 26.69 24.101L26.696 24.096L26.701 24.091L30.516 19.836C31.151 19.174 31.633 19.127 31.926 19.18C32.263 19.24 32.506 19.46 32.582 19.543C33.127 20.143 33.124 21.078 32.594 21.659L32.592 21.661L28.771 25.904H28.769C28.5623 26.1358 28.448 26.4355 28.448 26.746C28.448 27.0565 28.5623 27.3562 28.769 27.588C28.8732 27.7053 29.0011 27.7992 29.1443 27.8636C29.2874 27.928 29.4426 27.9614 29.5995 27.9616C29.7565 27.9618 29.9117 27.9288 30.055 27.8647C30.1983 27.8007 30.3264 27.7071 30.431 27.59L30.434 27.586L33.929 23.682C35.223 22.316 35.474 20.9 35.238 19.793C35.1378 19.3013 34.9229 18.8401 34.611 18.447C34.4795 18.2825 34.3229 18.1397 34.147 18.024C34.116 18.0045 34.0843 17.9861 34.052 17.969Z" fill="#2C70C1" stroke="#2C70C1"/>
</svg>
