<svg width="48" height="48" viewBox="0 0 48 48" fill="none" xmlns="http://www.w3.org/2000/svg">
<g clip-path="url(#clip0_1_10030)">
<path d="M46.967 22.253C50.602 35.375 44.314 48 33.295 48C27.198 48 24.595 44.496 17.898 36.337C11.2 28.178 1.65 39.522 0 22.253C1.386 6.33999 18.652 -8.06401 26.668 5.22599C33.966 17.326 43.333 9.13099 46.968 22.253H46.967Z" fill="#FFDD76"/>
<path d="M23.4935 15.515H23.4945C23.5541 15.4961 23.618 15.4961 23.6775 15.515L34.3135 18.903L34.3505 18.915L34.3895 18.921C34.4658 18.9332 34.5351 18.9727 34.5845 19.032C34.6399 19.0983 34.6706 19.1817 34.6716 19.268V19.282L34.6726 19.297V28.377L34.9156 28.523C35.2626 28.733 35.5005 29.119 35.5005 29.571C35.5005 29.698 35.4355 29.95 35.2815 30.311C35.1365 30.654 34.9395 31.035 34.7365 31.396C34.6015 31.638 34.4666 31.867 34.3456 32.065C34.2255 31.867 34.0895 31.638 33.9535 31.397C33.753 31.0448 33.5711 30.6823 33.4086 30.311C33.2556 29.95 33.1905 29.698 33.1905 29.571C33.1905 29.119 33.4286 28.732 33.7756 28.523L34.0175 28.377V19.762L33.3656 19.969L23.6785 23.056C23.6187 23.0751 23.5544 23.0751 23.4945 23.056L12.7355 19.628C12.6683 19.6055 12.6101 19.5621 12.5695 19.504C12.5243 19.4401 12.5 19.3638 12.5 19.2855C12.5 19.2072 12.5243 19.1309 12.5695 19.067C12.6101 19.0089 12.6683 18.9654 12.7355 18.943L23.4935 15.515ZM17.4646 28.245V23.979L22.7025 25.648C23.2771 25.8323 23.895 25.8323 24.4695 25.648L29.7076 23.979V28.245L29.5826 28.257C29.2006 28.3 28.6595 28.384 28.0125 28.552C26.7965 28.866 25.2025 29.477 23.5865 30.659C22.2572 29.6833 20.7551 28.9684 19.1595 28.552C18.6032 28.4066 18.0365 28.304 17.4646 28.245Z" fill="#63522B" stroke="#63522B"/>
</g>
<defs>
<clipPath id="clip0_1_10030">
<rect width="48" height="48" fill="white"/>
</clipPath>
</defs>
</svg>
