<svg width="48" height="48" viewBox="0 0 48 48" fill="none" xmlns="http://www.w3.org/2000/svg">
<g clip-path="url(#clip0_1_9899)">
<path d="M1.03313 25.747C-2.60187 12.625 3.68613 0 14.7051 0C20.8021 0 23.4051 3.504 30.1021 11.663C36.8001 19.822 46.3501 8.478 48.0001 25.747C46.6141 41.66 29.3481 56.064 21.3321 42.774C14.0341 30.674 4.66713 38.868 1.03213 25.747H1.03313Z" fill="#E6F1F9"/>
<path d="M20.727 12L19.637 14H12V16H14L15 34C15.156 35.2 16.176 36 17.518 36H30.454C31.797 36 32.844 35.2 33 34L34 16H36V14H28.364L27.273 12H20.727ZM16 16H32L31 34H17L16 16ZM20 19L20.727 28.5C20.727 29.162 21.325 30 22.061 30H23V19H20ZM25 19V30H26.182C26.918 30 27.272 29.162 27.272 28.5L28 19H25Z" fill="#036FC7"/>
</g>
<defs>
<clipPath id="clip0_1_9899">
<rect width="48" height="48" fill="white"/>
</clipPath>
</defs>
</svg>
