<svg width="48" height="48" viewBox="0 0 48 48" fill="none" xmlns="http://www.w3.org/2000/svg">
<g clip-path="url(#clip0_1_9980)">
<path d="M1.03313 32.952C-2.60187 20.138 3.68613 0 14.7051 0C20.8021 0 27.4051 2.446 34.1021 10.413C40.8001 18.381 48.0001 14.646 48.0001 30.023C48.0001 46.873 28.5001 54.198 21.3321 41.771C14.3971 29.748 4.66713 45.766 1.03213 32.952H1.03313Z" fill="#E2F9C3"/>
<mask id="mask0_1_9980" style="mask-type:alpha" maskUnits="userSpaceOnUse" x="12" y="12" width="24" height="24">
<path d="M24.0001 12C22.8301 12 21.7841 12.78 21.0841 14.01L18.4281 18.66L20.0451 19.62L22.6701 15C23.1431 14.167 23.6201 13.92 23.9981 13.92C24.3781 13.92 24.8541 14.167 25.3261 15L28.2131 20.07L26.7411 21L31.3601 23.88V18.12L29.8001 19.08L26.9141 14.01C26.2151 12.78 25.1701 12 24.0001 12ZM18.3991 20.61L13.7801 23.49L15.1951 24.36L12.6251 28.89C11.9291 30.116 11.7741 31.474 12.3651 32.52C12.9571 33.566 14.1551 34.08 15.5411 34.08H21.2281V32.16H15.5411C14.5851 32.16 14.1311 31.845 13.9531 31.53C13.7771 31.215 13.7411 30.683 14.2131 29.85L16.7531 25.35L18.3991 26.37V20.61ZM33.1221 25.02L31.5621 26.01L33.7861 29.85C34.2621 30.686 34.2221 31.215 34.0461 31.53C33.8691 31.845 33.4141 32.16 32.4581 32.16H27.6951V30.24L23.0751 33.12L27.6951 36V34.08H32.4581C33.8441 34.08 35.0421 33.566 35.6331 32.52C36.2251 31.474 36.0731 30.12 35.3731 28.89V28.86L33.1221 25.02Z" fill="white"/>
</mask>
<g mask="url(#mask0_1_9980)">
<path d="M24.0001 12C22.8301 12 21.7841 12.78 21.0841 14.01L18.4281 18.66L20.0451 19.62L22.6701 15C23.1431 14.167 23.6201 13.92 23.9981 13.92C24.3781 13.92 24.8541 14.167 25.3261 15L28.2131 20.07L26.7411 21L31.3601 23.88V18.12L29.8001 19.08L26.9141 14.01C26.2151 12.78 25.1701 12 24.0001 12ZM18.3991 20.61L13.7801 23.49L15.1951 24.36L12.6251 28.89C11.9291 30.116 11.7741 31.474 12.3651 32.52C12.9571 33.566 14.1551 34.08 15.5411 34.08H21.2281V32.16H15.5411C14.5851 32.16 14.1311 31.845 13.9531 31.53C13.7771 31.215 13.7411 30.683 14.2131 29.85L16.7531 25.35L18.3991 26.37V20.61ZM33.1221 25.02L31.5621 26.01L33.7861 29.85C34.2621 30.686 34.2221 31.215 34.0461 31.53C33.8691 31.845 33.4141 32.16 32.4581 32.16H27.6951V30.24L23.0751 33.12L27.6951 36V34.08H32.4581C33.8441 34.08 35.0421 33.566 35.6331 32.52C36.2251 31.474 36.0731 30.12 35.3731 28.89V28.86L33.1221 25.02Z" fill="#3A8241" stroke="#3A8241" stroke-width="3.846"/>
</g>
</g>
<defs>
<clipPath id="clip0_1_9980">
<rect width="48" height="48" fill="white"/>
</clipPath>
</defs>
</svg>
